<?xml version="1.0" encoding="UTF-8" standalone="no"?>
<svg width="11.2889mm" height="11.2889mm"
 viewBox="0 0 32 32"
 xmlns="http://www.w3.org/2000/svg" xmlns:xlink="http://www.w3.org/1999/xlink"  version="1.2" baseProfile="tiny">
<title>Qt SVG Document</title>
<desc>Generated with Qt</desc>
<defs>
</defs>
<g fill="none" stroke="black" stroke-width="1" fill-rule="evenodd" stroke-linecap="square" stroke-linejoin="bevel" >

<g fill="#ffffff" fill-opacity="1" stroke="#000000" stroke-opacity="1" stroke-width="0.566929" stroke-linecap="square" stroke-linejoin="miter" stroke-miterlimit="2" transform="matrix(1,0,0,1,0,0)"
font-family="MS Shell Dlg 2" font-size="8.25" font-weight="400" font-style="normal" 
>
<path vector-effect="none" fill-rule="evenodd" d="M8.91339,8.91339 L23.0866,8.91339 L23.0866,23.0866 L8.91339,23.0866 L8.91339,8.91339"/>
</g>

<g fill="#000000" fill-opacity="1" stroke="none" transform="matrix(1,0,0,1,16,15.1901)"
font-family="MS Shell Dlg 2" font-size="8.25" font-weight="400" font-style="normal" 
>
<path vector-effect="none" fill-rule="evenodd" d="M-3.14111,1.08105 L-2.95313,1.27393 L-2.76758,1.66943 L-2.76758,2.24316 L-2.95313,2.63623 L-3.16797,2.85352 L-3.69775,3.03906 L-5.29688,3.03906 L-5.29688,-0.71582 L-3.69775,-0.71582 L-3.16797,-0.530273 L-2.95313,-0.31543 L-2.76758,0.0800781 L-2.76758,0.497559 L-2.95313,0.890625 L-3.14111,1.08105 M-3.17346,0.180481 L-3.29073,-0.0636597 L-3.38308,-0.163261 L-3.75524,-0.291016 L-4.89404,-0.291016 L-4.89404,0.871094 L-3.76123,0.871094 L-3.38281,0.739334 L-3.29004,0.641716 L-3.17285,0.397652 L-3.17346,0.180481 M-3.17285,1.77113 L-3.28741,1.5326 L-3.38632,1.42407 L-3.76386,1.2959 L-4.89404,1.2959 L-4.89404,2.61426 L-3.74773,2.61426 L-3.38228,2.48883 L-3.28931,2.38755 L-3.17285,2.14082 L-3.17285,1.77113 M1.05176,2.46533 L0.680664,2.85352 L0.148323,3.03906 L-0.217773,3.03906 L-0.749924,2.85359 L-1.12354,2.46533 L-1.29932,1.91113 L-1.29932,-0.676758 L-0.896484,-0.676758 L-0.896484,1.84869 L-0.769188,2.24202 L-0.538666,2.48509 L-0.157158,2.61548 L0.0864487,2.61849 L0.464905,2.48917 L0.694016,2.24595 L0.824707,1.83965 L0.824707,-0.676758 L1.22998,-0.676758 L1.22998,1.91113 L1.05176,2.46533 M5.00049,0.248535 L4.61475,-0.162193 L4.23633,-0.291016 L3.69434,-0.291016 L3.31348,-0.162079 L3.10352,0.0593262 L3.10229,0.239342 L3.22406,0.489929 L3.32095,0.586517 L3.58936,0.729492 L4.49756,1.04688 L4.84668,1.2251 L5.04443,1.43506 L5.23242,1.82568 L5.23242,2.43848 L4.83203,2.85352 L4.2998,3.03906 L3.62842,3.03906 L3.09619,2.85352 L2.63965,2.38232 L2.92529,2.07227 L3.31592,2.48544 L3.69434,2.61426 L4.23633,2.61426 L4.61475,2.48452 L4.82471,2.26182 L4.82471,1.92159 L4.70767,1.67928 L4.60822,1.57758 L4.34146,1.43201 L3.43353,1.11676 L3.0828,0.938232 L2.88379,0.729492 L2.69824,0.338943 L2.69824,-0.115196 L3.09619,-0.530273 L3.62842,-0.71582 L4.2998,-0.71582 L4.83203,-0.530273 L5.29346,-0.0566406 L5.00049,0.248535"/>
</g>

<g fill="#ffffff" fill-opacity="1" stroke="#000000" stroke-opacity="1" stroke-width="0.566929" stroke-linecap="square" stroke-linejoin="miter" stroke-miterlimit="2" transform="matrix(1,0,0,1,0,0)"
font-family="MS Shell Dlg 2" font-size="8.25" font-weight="400" font-style="normal" 
>
</g>
</g>
</svg>
