<?xml version="1.0" encoding="UTF-8" standalone="no"?>
<svg width="11.2889mm" height="11.2889mm"
 viewBox="0 0 32 32"
 xmlns="http://www.w3.org/2000/svg" xmlns:xlink="http://www.w3.org/1999/xlink"  version="1.2" baseProfile="tiny">
<title>Qt SVG Document</title>
<desc>Generated with Qt</desc>
<defs>
</defs>
<g fill="none" stroke="black" stroke-width="1" fill-rule="evenodd" stroke-linecap="square" stroke-linejoin="bevel" >

<g fill="none" stroke="#000000" stroke-opacity="1" stroke-width="1" stroke-linecap="square" stroke-linejoin="bevel" transform="matrix(1,0,0,1,16,16)"
font-family="MS Shell Dlg 2" font-size="8.25" font-weight="400" font-style="normal" 
>
</g>

<g fill="none" stroke="#000000" stroke-opacity="1" stroke-width="1" stroke-linecap="square" stroke-linejoin="bevel" transform="matrix(1.33333,0,0,1.33333,16,16)"
font-family="MS Shell Dlg 2" font-size="8.25" font-weight="400" font-style="normal" 
>
</g>

<g fill="#000000" fill-opacity="1" stroke="none" transform="matrix(0.0195493,0,0,0.0195493,10.3307,10.3307)"
font-family="MS Shell Dlg 2" font-size="8.25" font-weight="400" font-style="normal" 
>
<path vector-effect="none" fill-rule="nonzero" d="M447.486,407.076 L425.162,349.493 C420.961,338.531 411.86,329.166 394.706,329.166 L363.181,329.166 L309.496,329.166 L277.59,329.166 C260.436,329.166 251.336,338.531 247.134,349.493 L224.833,407.076 C215.993,408.21 200.321,418.588 200.321,438.245 L200.321,511.473 L222.028,511.473 L222.028,534.892 C222.028,563.704 262.802,563.364 262.802,534.892 L262.802,511.473 L336.149,511.473 L336.172,511.473 L409.518,511.473 L409.518,534.892 C409.518,563.364 450.292,563.704 450.292,534.892 L450.292,511.473 L471.999,511.473 L471.999,438.245 C471.999,418.588 456.327,408.21 447.486,407.076 M243.069,467.347 C232.667,467.347 224.239,458.644 224.239,447.922 C224.239,437.201 232.667,428.522 243.069,428.522 C253.471,428.522 261.899,437.202 261.899,447.922 C261.898,458.644 253.471,467.347 243.069,467.347 M336.172,406.482 L336.149,406.482 L336.101,406.482 L247.919,406.482 L264.728,361.167 C266.829,354.801 269.977,350.203 277.329,350.135 L336.101,350.135 L336.149,350.135 L336.172,350.135 L394.968,350.135 C402.32,350.203 405.468,354.801 407.569,361.167 L424.378,406.482 L336.172,406.482 M429.251,467.347 C418.85,467.347 410.397,458.644 410.397,447.922 C410.397,437.201 418.849,428.522 429.251,428.522 C439.653,428.522 448.081,437.202 448.081,447.922 C448.081,458.644 439.653,467.347 429.251,467.347 "/>
</g>

<g fill="#000000" fill-opacity="1" stroke="none" transform="matrix(0.0195493,0,0,0.0195493,10.3307,10.3307)"
font-family="MS Shell Dlg 2" font-size="8.25" font-weight="400" font-style="normal" 
>
<path vector-effect="none" fill-rule="nonzero" d="M300.182,245.996 C320.198,224.214 330.205,197.597 330.205,166.142 C330.205,147.809 326.463,130.988 318.977,115.682 C311.492,100.376 301.61,88.475 289.332,79.981 C277.053,71.487 261.831,65.726 243.665,62.698 C230.713,60.344 211.959,59.166 187.402,59.166 L47.879,59.166 L47.879,429.041 L96.826,429.041 L96.826,278.669 L191.692,278.669 C244.002,278.669 280.165,267.778 300.182,245.996 M259.813,217.359 C246.525,229.133 224.07,235.021 192.448,235.02 L96.826,235.02 L96.826,102.814 L191.439,102.814 C213.642,102.814 228.864,103.908 237.106,106.094 C249.889,109.626 260.191,116.901 268.013,127.918 C275.834,138.936 279.745,152.182 279.745,167.656 C279.745,189.018 273.101,205.585 259.813,217.359 "/>
</g>

<g fill="none" stroke="#000000" stroke-opacity="1" stroke-width="1" stroke-linecap="square" stroke-linejoin="bevel" transform="matrix(1.33333,0,0,1.33333,16,16)"
font-family="MS Shell Dlg 2" font-size="8.25" font-weight="400" font-style="normal" 
>
</g>

<g fill="none" stroke="#000000" stroke-opacity="1" stroke-width="1" stroke-linecap="square" stroke-linejoin="bevel" transform="matrix(1,0,0,1,16,16)"
font-family="MS Shell Dlg 2" font-size="8.25" font-weight="400" font-style="normal" 
>
</g>

<g fill="none" stroke="#000000" stroke-opacity="1" stroke-width="1" stroke-linecap="square" stroke-linejoin="bevel" transform="matrix(1,0,0,1,0,0)"
font-family="MS Shell Dlg 2" font-size="8.25" font-weight="400" font-style="normal" 
>
</g>
</g>
</svg>
