<?xml version="1.0" encoding="UTF-8" standalone="no"?>
<svg width="11.2889mm" height="11.2889mm"
 viewBox="0 0 32 32"
 xmlns="http://www.w3.org/2000/svg" xmlns:xlink="http://www.w3.org/1999/xlink"  version="1.2" baseProfile="tiny">
<title>Qt SVG Document</title>
<desc>Generated with Qt</desc>
<defs>
</defs>
<g fill="none" stroke="black" stroke-width="1" fill-rule="evenodd" stroke-linecap="square" stroke-linejoin="bevel" >

<g fill="none" stroke="#000000" stroke-opacity="1" stroke-width="1" stroke-linecap="square" stroke-linejoin="bevel" transform="matrix(1,0,0,1,16,16)"
font-family="MS Shell Dlg 2" font-size="8.25" font-weight="400" font-style="normal" 
>
</g>

<g fill="none" stroke="#000000" stroke-opacity="1" stroke-width="1" stroke-linecap="square" stroke-linejoin="bevel" transform="matrix(1.33333,0,0,1.33333,16,16)"
font-family="MS Shell Dlg 2" font-size="8.25" font-weight="400" font-style="normal" 
>
</g>

<g fill="#ffffff" fill-opacity="1" stroke="none" transform="matrix(0.17903,0,0,0.17903,7.49606,3.15458)"
font-family="MS Shell Dlg 2" font-size="8.25" font-weight="400" font-style="normal" 
>
<path vector-effect="none" fill-rule="nonzero" d="M47.5,2.8 C23.8,2.8 2.4,22.3 2.4,46.3 C2.4,82 38.4,85.8 47.5,140.2 C56.6,85.8 92.6,82 92.6,46.3 C92.6,22.3 71.2,2.8 47.5,2.8 "/>
</g>

<g fill="none" stroke="#000000" stroke-opacity="1" stroke-width="0.5" stroke-linecap="butt" stroke-linejoin="miter" stroke-miterlimit="10" transform="matrix(0.17903,0,0,0.17903,7.49606,3.15458)"
font-family="MS Shell Dlg 2" font-size="8.25" font-weight="400" font-style="normal" 
>
<path vector-effect="none" fill-rule="nonzero" d="M47.5,2.8 C23.8,2.8 2.4,22.3 2.4,46.3 C2.4,82 38.4,85.8 47.5,140.2 C56.6,85.8 92.6,82 92.6,46.3 C92.6,22.3 71.2,2.8 47.5,2.8 "/>
</g>

<g fill="#993399" fill-opacity="1" stroke="none" transform="matrix(0.17903,0,0,0.17903,7.49606,3.15458)"
font-family="MS Shell Dlg 2" font-size="8.25" font-weight="400" font-style="normal" 
>
<path vector-effect="none" fill-rule="nonzero" d="M63,47.9 L40.3,47.9 L53.2,25.3 C54.8,22.5 54,18.8 51.5,17.1 C49,15.4 45.6,16.2 44,19 L25.9,50.7 C24.3,53.5 25.1,57.2 27.6,58.9 C28.5,59.5 29.5,59.8 30.5,59.8 L53.2,59.8 L40.4,82.5 C38.8,85.3 39.6,89 42.1,90.7 C44.6,92.4 48,91.6 49.6,88.8 L67.7,57.1 C69.3,54.3 68.5,50.6 66,48.9 C65,48.3 64,47.9 63,47.9 "/>
</g>

<g fill="none" stroke="#000000" stroke-opacity="1" stroke-width="1" stroke-linecap="square" stroke-linejoin="bevel" transform="matrix(1.33333,0,0,1.33333,16,16)"
font-family="MS Shell Dlg 2" font-size="8.25" font-weight="400" font-style="normal" 
>
</g>

<g fill="none" stroke="#000000" stroke-opacity="1" stroke-width="1" stroke-linecap="square" stroke-linejoin="bevel" transform="matrix(1,0,0,1,16,16)"
font-family="MS Shell Dlg 2" font-size="8.25" font-weight="400" font-style="normal" 
>
</g>

<g fill="none" stroke="#000000" stroke-opacity="1" stroke-width="1" stroke-linecap="square" stroke-linejoin="bevel" transform="matrix(1,0,0,1,0,0)"
font-family="MS Shell Dlg 2" font-size="8.25" font-weight="400" font-style="normal" 
>
</g>
</g>
</svg>
