<?xml version="1.0" encoding="UTF-8" standalone="no"?>
<svg width="32" height="32" viewBox="6 10 20 9" xmlns="http://www.w3.org/2000/svg" xmlns:xlink="http://www.w3.org/1999/xlink" version="1.2" baseProfile="tiny">
<title>Qt SVG Document</title>
<desc>Generated with Qt</desc>
<defs>
</defs>
<g fill="none" stroke="black" stroke-width="1" fill-rule="evenodd" stroke-linecap="square" stroke-linejoin="bevel" >

<!-- Cercle extérieur -->
<g fill="#ffffff" fill-opacity="1" stroke="#000000" stroke-opacity="1" stroke-width="1.13386" stroke-linecap="square" stroke-linejoin="miter" stroke-miterlimit="2">
<path vector-effect="none" fill-rule="evenodd" d="M22.378,16 C22.378,19.1702 19.5224,21.7402 16,21.7402 C12.4776,21.7402 9.62205,19.1702 9.62205,16 C9.62205,12.8298 12.4776,10.2598 16,10.2598 C19.5224,10.2598 22.378,12.8298 22.378,16 "/>
</g>

<!-- Croix intérieure -->
<g stroke="none">
<path vector-effect="none" fill-rule="evenodd" d="M21.8788,16 L21.4168,18.2883 L20.157,20.157 L18.2883,21.4168 L16,21.8788 L13.7117,21.4168 L11.843,20.157 L10.5832,18.2883 L10.1212,16 L10.5832,13.7117 L11.843,11.843 L13.7117,10.5832 L16,10.1212 L18.2883,10.5832 L20.157,11.843 L21.4168,13.7117 L21.8788,16"/>
</g>

<!-- Lignes verticales ajustées -->
<line x1="11.5" y1="11.5" x2="11.5" y2="20.5" stroke="black" stroke-width="1" />
<line x1="16" y1="11.5" x2="16" y2="20.5" stroke="black" stroke-width="1" />
<line x1="20.5" y1="11.5" x2="20.5" y2="20.5" stroke="black" stroke-width="1" />

</g>
</svg>
