<?xml version="1.0" encoding="UTF-8" standalone="no"?>
<svg width="32" height="32" viewBox="6 11 16 9" xmlns="http://www.w3.org/2000/svg" xmlns:xlink="http://www.w3.org/1999/xlink"  version="1.2" baseProfile="tiny">
<title>Qt SVG Document</title>
<desc>Generated with Qt</desc>
<defs>
</defs>
<g fill="none" stroke="black" stroke-width="1" fill-rule="evenodd" stroke-linecap="square" stroke-linejoin="bevel" >

<g fill="#919191" fill-opacity="0.501961" stroke="#000000" stroke-opacity="1" stroke-width="0.850394" stroke-linecap="square" stroke-linejoin="bevel" transform="matrix(1,0,0,1,0,0)"
font-family="MS Shell Dlg 2" font-size="8.25" font-weight="400" font-style="normal" 
>
<path vector-effect="none" fill-rule="evenodd" d="M11.0394,11.0394 L16,11.0394 L16,20.9606 L11.0394,20.9606 L11.0394,11.0394"/>
</g>

<g fill="#ffffff" fill-opacity="1" stroke="#232323" stroke-opacity="1" stroke-width="1" stroke-linecap="square" stroke-linejoin="bevel" transform="matrix(1,0,0,1,0,0)"
font-family="MS Shell Dlg 2" font-size="8.25" font-weight="400" font-style="normal" 
>
<path vector-effect="non-scaling-stroke" fill-rule="evenodd" d="M13.6189,16.9921 C14.386,16.9921 15.0079,17.614 15.0079,18.3811 C15.0079,19.1482 14.386,19.7701 13.6189,19.7701 C12.8518,19.7701 12.2299,19.1482 12.2299,18.3811 C12.2299,17.614 12.8518,16.9921 13.6189,16.9921 "/>
</g>

<g fill="#ffffff" fill-opacity="1" stroke="#000000" stroke-opacity="1" stroke-width="1" stroke-linecap="square" stroke-linejoin="bevel" transform="matrix(1,0,0,1,0,0)"
font-family="MS Shell Dlg 2" font-size="8.25" font-weight="400" font-style="normal" 
>
<path vector-effect="non-scaling-stroke" fill-rule="evenodd" d="M13.6189,12.2299 C14.386,12.2299 15.0079,12.8518 15.0079,13.6189 C15.0079,14.386 14.386,15.0079 13.6189,15.0079 C12.8518,15.0079 12.2299,14.386 12.2299,13.6189 C12.2299,12.8518 12.8518,12.2299 13.6189,12.2299 "/>
</g>
</g>
</svg>
