<?xml version="1.0" encoding="UTF-8" standalone="no"?>
<svg width="11.2889mm" height="11.2889mm"
 viewBox="0 0 32 32"
 xmlns="http://www.w3.org/2000/svg" xmlns:xlink="http://www.w3.org/1999/xlink"  version="1.2" baseProfile="tiny">
<title>Qt SVG Document</title>
<desc>Generated with Qt</desc>
<defs>
</defs>
<g fill="none" stroke="black" stroke-width="1" fill-rule="evenodd" stroke-linecap="square" stroke-linejoin="bevel" >

<g fill="#ffffff" fill-opacity="1" stroke="#000000" stroke-opacity="1" stroke-width="1.13386" stroke-linecap="square" stroke-linejoin="miter" stroke-miterlimit="2" transform="matrix(1,0,0,1,0,0)"
font-family="MS Shell Dlg 2" font-size="8.25" font-weight="400" font-style="normal" 
>
<path vector-effect="none" fill-rule="evenodd" d="M22.378,16 C22.378,19.1702 19.5224,21.7402 16,21.7402 C12.4776,21.7402 9.62205,19.1702 9.62205,16 C9.62205,12.8298 12.4776,10.2598 16,10.2598 C19.5224,10.2598 22.378,12.8298 22.378,16 "/>
</g>

<g stroke="none" transform="matrix(1,0,0,1,0,0)"
font-family="MS Shell Dlg 2" font-size="8.25" font-weight="400" font-style="normal" 
>
<path vector-effect="none" fill-rule="evenodd" d="M21.8788,16 L21.4168,18.2883 L20.157,20.157 L18.2883,21.4168 L16,21.8788 L13.7117,21.4168 L11.843,20.157 L10.5832,18.2883 L10.1212,16 L10.5832,13.7117 L11.843,11.843 L13.7117,10.5832 L16,10.1212 L18.2883,10.5832 L20.157,11.843 L21.4168,13.7117 L21.8788,16"/>
</g>
</g>
</svg>
