<?xml version="1.0" encoding="UTF-8" standalone="no"?>
<svg width="11.2889mm" height="11.2889mm"
 viewBox="0 0 32 32"
 xmlns="http://www.w3.org/2000/svg" xmlns:xlink="http://www.w3.org/1999/xlink"  version="1.2" baseProfile="tiny">
<title>Qt SVG Document</title>
<desc>Generated with Qt</desc>
<defs>
</defs>
<g fill="none" stroke="black" stroke-width="1" fill-rule="evenodd" stroke-linecap="square" stroke-linejoin="bevel" >

<g fill="#ffffff" fill-opacity="1" stroke="#f0f000" stroke-opacity="1" stroke-width="1.13386" stroke-linecap="square" stroke-linejoin="miter" stroke-miterlimit="2" transform="matrix(1,0,0,1,0,0)"
font-family="MS Shell Dlg 2" font-size="8.25" font-weight="400" font-style="normal" 
>
<path vector-effect="none" fill-rule="evenodd" d="M22.378,16 C22.378,19.1702 19.5224,21.7402 16,21.7402 C12.4776,21.7402 9.62205,19.1702 9.62205,16 C9.62205,12.8298 12.4776,10.2598 16,10.2598 C19.5224,10.2598 22.378,12.8298 22.378,16 "/>
</g>

<g stroke="none" transform="matrix(1,0,0,1,0,0)"
font-family="MS Shell Dlg 2" font-size="8.25" font-weight="400" font-style="normal" 
>
<path vector-effect="none" fill-rule="evenodd" d="M21.5217,16 L21.0877,18.1493 L19.9044,19.9044 L18.1493,21.0877 L16,21.5217 L13.8507,21.0877 L12.0956,19.9044 L10.9123,18.1493 L10.4783,16 L10.9123,13.8507 L12.0956,12.0956 L13.8507,10.9123 L16,10.4783 L18.1493,10.9123 L19.9044,12.0956 L21.0877,13.8507 L21.5217,16"/>
</g>
</g>
</svg>
