<?xml version="1.0" encoding="UTF-8" standalone="no"?>
<svg width="11.2889mm" height="11.2889mm"
 viewBox="0 0 32 32"
 xmlns="http://www.w3.org/2000/svg" xmlns:xlink="http://www.w3.org/1999/xlink"  version="1.2" baseProfile="tiny">
<title>Qt SVG Document</title>
<desc>Generated with Qt</desc>
<defs>
</defs>
<g fill="none" stroke="black" stroke-width="1" fill-rule="evenodd" stroke-linecap="square" stroke-linejoin="bevel" >

<g fill="#ffffff" fill-opacity="1" stroke="#000000" stroke-opacity="1" stroke-width="1.13386" stroke-linecap="square" stroke-linejoin="miter" stroke-miterlimit="2" transform="matrix(1,0,0,1,0,0)"
font-family="MS Shell Dlg 2" font-size="8.25" font-weight="400" font-style="normal" 
>
<path vector-effect="none" fill-rule="evenodd" d="M21.7402,16 C21.7402,18.8532 19.1702,21.1661 16,21.1661 C12.8298,21.1661 10.2598,18.8532 10.2598,16 C10.2598,13.1468 12.8298,10.8339 16,10.8339 C19.1702,10.8339 21.7402,13.1468 21.7402,16 "/>
</g>

<g stroke="none" transform="matrix(1,0,0,1,0,0)"
font-family="MS Shell Dlg 2" font-size="8.25" font-weight="400" font-style="normal" 
>
<path vector-effect="none" fill-rule="evenodd" d="M21.3235,16 L20.9051,18.0721 L19.7643,19.7643 L18.0721,20.9051 L16,21.3235 L13.9279,20.9051 L12.2357,19.7643 L11.0949,18.0721 L10.6765,16 L11.0949,13.9279 L12.2357,12.2357 L13.9279,11.0949 L16,10.6765 L18.0721,11.0949 L19.7643,12.2357 L20.9051,13.9279 L21.3235,16"/>
</g>

<g fill="none" stroke="#000000" stroke-opacity="1" stroke-width="1.13386" stroke-linecap="square" stroke-linejoin="bevel" transform="matrix(1,0,0,1,0,0)"
font-family="MS Shell Dlg 2" font-size="8.25" font-weight="400" font-style="normal" 
>
<path vector-effect="none" fill-rule="evenodd" d="M9.62205,9.62205 L22.378,22.378 M22.378,9.62205 L9.62205,22.378"/>
</g>
</g>
</svg>
