<?xml version="1.0" encoding="UTF-8" standalone="no"?>
<svg width="11.2889mm" height="11.2889mm"
 viewBox="0 0 32 32"
 xmlns="http://www.w3.org/2000/svg" xmlns:xlink="http://www.w3.org/1999/xlink"  version="1.2" baseProfile="tiny">
<title>Qt SVG Document</title>
<desc>Generated with Qt</desc>
<defs>
</defs>
<g fill="none" stroke="black" stroke-width="1" fill-rule="evenodd" stroke-linecap="square" stroke-linejoin="bevel" >

<g fill="#ffffff" fill-opacity="1" stroke="#7fffff" stroke-opacity="1" stroke-width="1.13386" stroke-linecap="square" stroke-linejoin="miter" stroke-miterlimit="2" transform="matrix(1,0,0,1,0,0)"
font-family="MS Shell Dlg 2" font-size="8.25" font-weight="400" font-style="normal" 
>
<path vector-effect="none" fill-rule="evenodd" d="M23.0866,8.91339 L23.0866,16 L8.91339,16 L8.91339,8.91339 L23.0866,8.91339"/>
</g>

<g fill="#7fffff" fill-opacity="1" stroke="#7fffff" stroke-opacity="1" stroke-width="0.283465" stroke-linecap="square" stroke-linejoin="bevel" transform="matrix(1,0,0,1,16,11.4646)"
font-family="MS Shell Dlg 2" font-size="8.25" font-weight="400" font-style="normal" 
>
<path vector-effect="none" fill-rule="evenodd" d="M-2.95564,2.47762 L-3.30713,2.84375 L-3.69043,3.03906 L-4.39844,3.03906 L-4.77686,2.84375 L-5.1333,2.47754 L-5.30176,2.11377 L-5.47266,1.59131 L-5.47266,0.731934 L-5.30176,0.209473 L-5.1333,-0.154297 L-4.77686,-0.520508 L-4.39844,-0.71582 L-3.69043,-0.71582 L-3.30713,-0.520508 L-2.95557,-0.154297 L-2.71871,0.34375 L-3.07626,0.546997 L-3.29286,0.097168 L-3.54917,-0.169785 L-3.78168,-0.291016 L-4.29842,-0.291016 L-4.53107,-0.171577 L-4.79311,0.0989609 L-4.9278,0.371941 L-5.06494,0.798462 L-5.06494,1.52478 L-4.92723,1.9513 L-4.79196,2.22428 L-4.52882,2.49482 L-4.29521,2.61426 L-3.77634,2.61426 L-3.54787,2.49512 L-3.29099,2.22756 L-3.07417,1.77743 L-2.71875,1.97949 L-2.95564,2.47762 M-1.45801,3 L-1.45801,-0.674316 L-1.03809,-0.674316 L-1.03809,3 L-1.45801,3 M1.85889,1.08105 L2.04688,1.27393 L2.23242,1.66943 L2.23242,2.24316 L2.04688,2.63623 L1.83203,2.85352 L1.30225,3.03906 L-0.296875,3.03906 L-0.296875,-0.71582 L1.30225,-0.71582 L1.83203,-0.530273 L2.04688,-0.31543 L2.23242,0.0800781 L2.23242,0.497559 L2.04688,0.890625 L1.85889,1.08105 M1.82654,0.180481 L1.70927,-0.0636597 L1.61692,-0.163261 L1.24476,-0.291016 L0.105957,-0.291016 L0.105957,0.871094 L1.23877,0.871094 L1.61719,0.739334 L1.70996,0.641716 L1.82715,0.397652 L1.82654,0.180481 M1.82715,1.77113 L1.71259,1.5326 L1.61368,1.42407 L1.23614,1.2959 L0.105957,1.2959 L0.105957,2.61426 L1.25227,2.61426 L1.61772,2.48883 L1.71069,2.38755 L1.82715,2.14082 L1.82715,1.77113 M3.70068,3.03906 L3.70068,-0.71582 L6.01514,-0.71582 L6.01514,-0.291016 L4.10107,-0.291016 L4.10107,0.871094 L5.26563,0.871094 L5.26563,1.2959 L4.10107,1.2959 L4.10107,2.61426 L6.01514,2.61426 L6.01514,3.03906 L3.70068,3.03906"/>
</g>

<g fill="#ffffff" fill-opacity="1" stroke="#7fffff" stroke-opacity="1" stroke-width="1.13386" stroke-linecap="square" stroke-linejoin="miter" stroke-miterlimit="2" transform="matrix(1,0,0,1,0,0)"
font-family="MS Shell Dlg 2" font-size="8.25" font-weight="400" font-style="normal" 
>
</g>
</g>
</svg>
