<?xml version="1.0" encoding="UTF-8" standalone="no"?>
<svg width="11.2889mm" height="11.2889mm"
 viewBox="0 0 32 32"
 xmlns="http://www.w3.org/2000/svg" xmlns:xlink="http://www.w3.org/1999/xlink"  version="1.2" baseProfile="tiny">
<title>Qt SVG Document</title>
<desc>Generated with Qt</desc>
<defs>
</defs>
<g fill="none" stroke="black" stroke-width="1" fill-rule="evenodd" stroke-linecap="square" stroke-linejoin="bevel" >

<g fill="#ffffff" fill-opacity="1" stroke="#000000" stroke-opacity="1" stroke-width="1.13386" stroke-linecap="square" stroke-linejoin="miter" stroke-miterlimit="2" transform="matrix(1,0,0,1,0,0)"
font-family="MS Shell Dlg 2" font-size="8.25" font-weight="400" font-style="normal" 
>
<path vector-effect="none" fill-rule="evenodd" d="M23.0866,8.91339 L23.0866,16 L8.91339,16 L8.91339,8.91339 L23.0866,8.91339"/>
</g>

<g fill="#000000" fill-opacity="1" stroke="#000000" stroke-opacity="1" stroke-width="0.283465" stroke-linecap="square" stroke-linejoin="bevel" transform="matrix(1,0,0,1,16,11.4646)"
font-family="MS Shell Dlg 2" font-size="8.25" font-weight="400" font-style="normal" 
>
<path vector-effect="none" fill-rule="evenodd" d="M-3.80445,0.554245 L-3.70695,0.553711 L-3.32918,0.748947 L-3.12158,0.971191 L-2.9458,1.52539 L-2.9458,1.90869 L-3.12158,2.46533 L-3.49512,2.85352 L-4.02734,3.03906 L-4.54492,3.03906 L-5.07707,2.85359 L-5.28955,2.63623 L-5.52393,2.14063 L-5.16988,1.93551 L-4.95676,2.38057 L-4.85742,2.48803 L-4.48782,2.61426 L-4.09254,2.61426 L-3.71198,2.48471 L-3.47631,2.23782 L-3.34863,1.83942 L-3.34863,1.58765 L-3.47551,1.19576 L-3.57217,1.09608 L-3.80476,0.976074 L-4.61572,0.976074 L-3.70504,-0.291016 L-5.13574,-0.291016 L-5.13574,-0.71582 L-2.89163,-0.71582 L-3.80445,0.554245 M5.06152,2.11377 L4.89307,2.47754 L4.52686,2.85352 L3.99707,3.03906 L2.70068,3.03906 L2.70068,-0.71582 L3.99707,-0.71582 L4.52686,-0.530273 L4.89307,-0.154297 L5.06152,0.209473 L5.22998,0.731934 L5.22998,1.59131 L5.06152,2.11377 M4.82471,0.803802 L4.68967,0.370911 L4.55459,0.0965195 L4.31171,-0.1633 L3.93958,-0.291016 L3.10352,-0.291016 L3.10352,2.61426 L3.93203,2.61426 L4.30972,2.48666 L4.55341,2.22901 L4.68974,1.95203 L4.82471,1.52749 L4.82471,0.803802"/>
</g>

<g fill="#ffffff" fill-opacity="1" stroke="#000000" stroke-opacity="1" stroke-width="1.13386" stroke-linecap="square" stroke-linejoin="miter" stroke-miterlimit="2" transform="matrix(1,0,0,1,0,0)"
font-family="MS Shell Dlg 2" font-size="8.25" font-weight="400" font-style="normal" 
>
</g>

<g fill="none" stroke="#000000" stroke-opacity="1" stroke-width="0.850394" stroke-linecap="square" stroke-linejoin="bevel" transform="matrix(1,0,0,1,0,0)"
font-family="MS Shell Dlg 2" font-size="8.25" font-weight="400" font-style="normal" 
>
<path vector-effect="none" fill-rule="evenodd" d="M8.91339,6.07874 L23.0866,20.252 M23.0866,6.07874 L8.91339,20.252"/>
</g>
</g>
</svg>
