<?xml version="1.0" encoding="UTF-8" standalone="no"?>
<svg width="11.2889mm" height="11.2889mm"
 viewBox="0 0 32 32"
 xmlns="http://www.w3.org/2000/svg" xmlns:xlink="http://www.w3.org/1999/xlink"  version="1.2" baseProfile="tiny">
<title>Qt SVG Document</title>
<desc>Generated with Qt</desc>
<defs>
</defs>
<g fill="none" stroke="black" stroke-width="1" fill-rule="evenodd" stroke-linecap="square" stroke-linejoin="bevel" >

<g fill="#ffffff" fill-opacity="1" stroke="#000000" stroke-opacity="1" stroke-width="1.13386" stroke-linecap="square" stroke-linejoin="miter" stroke-miterlimit="2" transform="matrix(1,0,0,1,0,0)"
font-family="MS Shell Dlg 2" font-size="8.25" font-weight="400" font-style="normal" 
>
<path vector-effect="none" fill-rule="evenodd" d="M23.0866,8.91339 L23.0866,16 L8.91339,16 L8.91339,8.91339 L23.0866,8.91339"/>
</g>

<g fill="#000000" fill-opacity="1" stroke="#000000" stroke-opacity="1" stroke-width="0.283465" stroke-linecap="square" stroke-linejoin="bevel" transform="matrix(1,0,0,1,16,11.4646)"
font-family="MS Shell Dlg 2" font-size="8.25" font-weight="400" font-style="normal" 
>
<path vector-effect="none" fill-rule="evenodd" d="M-2.39893,-0.291016 L-2.39893,0.871094 L-1.23438,0.871094 L-1.23438,1.29102 L-2.39893,1.29102 L-2.39893,3 L-2.79932,3 L-2.79932,-0.71582 L-0.484863,-0.71582 L-0.484863,-0.291016 L-2.39893,-0.291016 M2.54436,2.47762 L2.19287,2.84375 L1.80957,3.03906 L1.10156,3.03906 L0.723145,2.84375 L0.366699,2.47754 L0.198242,2.11377 L0.0273438,1.59131 L0.0273438,0.731934 L0.198242,0.209473 L0.366699,-0.154297 L0.723145,-0.520508 L1.10156,-0.71582 L1.80957,-0.71582 L2.19287,-0.520508 L2.54443,-0.154297 L2.78129,0.34375 L2.42374,0.546997 L2.20714,0.097168 L1.95083,-0.169785 L1.71832,-0.291016 L1.20158,-0.291016 L0.968925,-0.171577 L0.706894,0.0989609 L0.572197,0.371941 L0.435059,0.798462 L0.435059,1.52478 L0.572769,1.9513 L0.708038,2.22428 L0.971176,2.49482 L1.20479,2.61426 L1.72366,2.61426 L1.95213,2.49512 L2.20901,2.22756 L2.42583,1.77743 L2.78125,1.97949 L2.54436,2.47762"/>
</g>

<g fill="#ffffff" fill-opacity="1" stroke="#000000" stroke-opacity="1" stroke-width="1.13386" stroke-linecap="square" stroke-linejoin="miter" stroke-miterlimit="2" transform="matrix(1,0,0,1,0,0)"
font-family="MS Shell Dlg 2" font-size="8.25" font-weight="400" font-style="normal" 
>
</g>
</g>
</svg>
