<?xml version="1.0" encoding="UTF-8" standalone="no"?>
<svg width="11.2889mm" height="11.2889mm"
 viewBox="0 0 32 32"
 xmlns="http://www.w3.org/2000/svg" xmlns:xlink="http://www.w3.org/1999/xlink"  version="1.2" baseProfile="tiny">
<title>Qt SVG Document</title>
<desc>Generated with Qt</desc>
<defs>
</defs>
<g fill="none" stroke="black" stroke-width="1" fill-rule="evenodd" stroke-linecap="square" stroke-linejoin="bevel" >

<g fill="#ffffff" fill-opacity="1" stroke="#000000" stroke-opacity="1" stroke-width="1.13386" stroke-linecap="square" stroke-linejoin="miter" stroke-miterlimit="2" transform="matrix(1,0,0,1,0,0)"
font-family="MS Shell Dlg 2" font-size="8.25" font-weight="400" font-style="normal" 
>
<path vector-effect="none" fill-rule="evenodd" d="M23.0866,8.91339 L23.0866,16 L8.91339,16 L8.91339,8.91339 L23.0866,8.91339"/>
</g>

<g fill="#000000" fill-opacity="1" stroke="#000000" stroke-opacity="1" stroke-width="0.283465" stroke-linecap="square" stroke-linejoin="bevel" transform="matrix(1,0,0,1,16,11.4646)"
font-family="MS Shell Dlg 2" font-size="8.25" font-weight="400" font-style="normal" 
>
<path vector-effect="none" fill-rule="evenodd" d="M-5.76807,3.03906 L-3.91748,1.1081 L-3.63184,0.6614 L-3.50488,0.397728 L-3.50553,0.180481 L-3.62825,-0.0692291 L-3.72442,-0.171349 L-3.95628,-0.291016 L-4.47614,-0.291016 L-4.70583,-0.171692 L-4.80833,-0.0650711 L-4.92822,0.180824 L-4.92822,0.463379 L-5.33105,0.463379 L-5.33105,0.0800781 L-5.14795,-0.312988 L-4.9452,-0.520546 L-4.56941,-0.71582 L-3.86377,-0.71582 L-3.48543,-0.520584 L-3.28516,-0.31543 L-3.09961,0.0800781 L-3.09961,0.497139 L-3.27783,0.870331 L-3.60254,1.37276 L-4.79395,2.61426 L-2.98242,2.61426 L-2.98242,3.03906 L-5.76807,3.03906 M5.06152,2.11377 L4.89307,2.47754 L4.52686,2.85352 L3.99707,3.03906 L2.70068,3.03906 L2.70068,-0.71582 L3.99707,-0.71582 L4.52686,-0.530273 L4.89307,-0.154297 L5.06152,0.209473 L5.22998,0.731934 L5.22998,1.59131 L5.06152,2.11377 M4.82471,0.803802 L4.68967,0.370911 L4.55459,0.0965195 L4.31171,-0.1633 L3.93958,-0.291016 L3.10352,-0.291016 L3.10352,2.61426 L3.93203,2.61426 L4.30972,2.48666 L4.55341,2.22901 L4.68974,1.95203 L4.82471,1.52749 L4.82471,0.803802"/>
</g>

<g fill="#ffffff" fill-opacity="1" stroke="#000000" stroke-opacity="1" stroke-width="1.13386" stroke-linecap="square" stroke-linejoin="miter" stroke-miterlimit="2" transform="matrix(1,0,0,1,0,0)"
font-family="MS Shell Dlg 2" font-size="8.25" font-weight="400" font-style="normal" 
>
</g>

<g fill="none" stroke="#000000" stroke-opacity="1" stroke-width="0.850394" stroke-linecap="square" stroke-linejoin="bevel" transform="matrix(1,0,0,1,0,0)"
font-family="MS Shell Dlg 2" font-size="8.25" font-weight="400" font-style="normal" 
>
<path vector-effect="none" fill-rule="evenodd" d="M8.91339,6.07874 L23.0866,20.252 M23.0866,6.07874 L8.91339,20.252"/>
</g>
</g>
</svg>
