<?xml version="1.0" encoding="UTF-8" standalone="no"?>
<svg width="11.2889mm" height="11.2889mm"
 viewBox="0 0 32 32"
 xmlns="http://www.w3.org/2000/svg" xmlns:xlink="http://www.w3.org/1999/xlink"  version="1.2" baseProfile="tiny">
<title>Qt SVG Document</title>
<desc>Generated with Qt</desc>
<defs>
</defs>
<g fill="none" stroke="black" stroke-width="1" fill-rule="evenodd" stroke-linecap="square" stroke-linejoin="bevel" >

<g fill="#ffffff" fill-opacity="1" stroke="#000000" stroke-opacity="1" stroke-width="1.13386" stroke-linecap="square" stroke-linejoin="miter" stroke-miterlimit="2" transform="matrix(1,0,0,1,0,0)"
font-family="MS Shell Dlg 2" font-size="8.25" font-weight="400" font-style="normal" 
>
<path vector-effect="none" fill-rule="evenodd" d="M23.0866,8.91339 L23.0866,16 L8.91339,16 L8.91339,8.91339 L23.0866,8.91339"/>
</g>

<g fill="#000000" fill-opacity="1" stroke="#000000" stroke-opacity="1" stroke-width="0.283465" stroke-linecap="square" stroke-linejoin="bevel" transform="matrix(1,0,0,1,16,11.4646)"
font-family="MS Shell Dlg 2" font-size="8.25" font-weight="400" font-style="normal" 
>
<path vector-effect="none" fill-rule="evenodd" d="M-3.35938,-0.291016 L-3.35938,3 L-3.76221,3 L-3.76221,-0.291016 L-4.78516,-0.291016 L-4.78516,-0.71582 L-2.33398,-0.71582 L-2.33398,-0.291016 L-3.35938,-0.291016 M-1.08447,3.10498 L-1.36588,2.82357 L-1.08447,2.54216 L-0.803062,2.82357 L-1.08447,3.10498 M2.01416,2.62158 L1.81641,2.84375 L1.45752,3.03906 L1.07666,3.03906 L0.717773,2.84375 L0.52002,2.62158 L0.351563,2.06738 L0.351563,1.54492 L0.739746,1.54492 L0.739746,2.00967 L0.860939,2.40006 L0.952682,2.50172 L1.17016,2.61742 L1.36593,2.61639 L1.58695,2.49608 L1.67213,2.40365 L1.79443,2.00127 L1.79443,-0.676758 L2.18262,-0.676758 L2.18262,2.06738 L2.01416,2.62158 M3.91553,3.10498 L3.63412,2.82357 L3.91553,2.54216 L4.19694,2.82357 L3.91553,3.10498"/>
</g>

<g fill="#ffffff" fill-opacity="1" stroke="#000000" stroke-opacity="1" stroke-width="1.13386" stroke-linecap="square" stroke-linejoin="miter" stroke-miterlimit="2" transform="matrix(1,0,0,1,0,0)"
font-family="MS Shell Dlg 2" font-size="8.25" font-weight="400" font-style="normal" 
>
</g>

<g fill="none" stroke="#000000" stroke-opacity="1" stroke-width="0.850394" stroke-linecap="square" stroke-linejoin="bevel" transform="matrix(1,0,0,1,0,0)"
font-family="MS Shell Dlg 2" font-size="8.25" font-weight="400" font-style="normal" 
>
<path vector-effect="none" fill-rule="evenodd" d="M8.91339,6.07874 L23.0866,20.252 M23.0866,6.07874 L8.91339,20.252"/>
</g>
</g>
</svg>
