<?xml version="1.0" encoding="UTF-8" standalone="no"?>
<svg width="11.2889mm" height="11.2889mm"
 viewBox="0 0 32 32"
 xmlns="http://www.w3.org/2000/svg" xmlns:xlink="http://www.w3.org/1999/xlink"  version="1.2" baseProfile="tiny">
<title>Qt SVG Document</title>
<desc>Generated with Qt</desc>
<defs>
</defs>
<g fill="none" stroke="black" stroke-width="1" fill-rule="evenodd" stroke-linecap="square" stroke-linejoin="bevel" >

<g fill="#c98225" fill-opacity="1" stroke="#ffffff" stroke-opacity="1" stroke-width="1.13386" stroke-linecap="square" stroke-linejoin="bevel" transform="matrix(1,0,0,1,0,0)"
font-family="MS Shell Dlg 2" font-size="8.25" font-weight="400" font-style="normal" 
>
<path vector-effect="none" fill-rule="evenodd" d="M10.3307,10.3307 L21.6693,10.3307 L21.6693,21.6693 L10.3307,21.6693 L10.3307,10.3307"/>
</g>

<g fill="#ffffff" fill-opacity="1" stroke="#ffffff" stroke-opacity="1" stroke-width="0.566929" stroke-linecap="square" stroke-linejoin="bevel" transform="matrix(1,0,0,1,16.5669,16)"
font-family="MS Shell Dlg 2" font-size="8.25" font-weight="400" font-style="normal" 
>
<path vector-effect="none" fill-rule="evenodd" d="M1.729,-0.0546875 C1.729,0.166341 1.6897,0.375407 1.61108,0.57251 C1.53247,0.769613 1.42367,0.937663 1.28467,1.07666 C1.10921,1.24984 0.902995,1.38086 0.666016,1.46973 C0.429036,1.55859 0.129395,1.60303 -0.23291,1.60303 L-0.807129,1.60303 L-0.807129,3.5 L-1.48389,3.5 L-1.48389,-1.58936 L-0.205566,-1.58936 C0.0952148,-1.58936 0.351563,-1.56429 0.563477,-1.51416 C0.775391,-1.46403 0.96224,-1.38314 1.12402,-1.27148 C1.31315,-1.1416 1.46126,-0.976969 1.56836,-0.777588 C1.67546,-0.578206 1.729,-0.33724 1.729,-0.0546875 M1.0249,-0.0375977 C1.0249,-0.213053 0.99471,-0.365723 0.934326,-0.495605 C0.873942,-0.625488 0.782227,-0.731445 0.65918,-0.813477 C0.552083,-0.884115 0.427327,-0.934245 0.284912,-0.963867 C0.142497,-0.99349 -0.034668,-1.0083 -0.246582,-1.0083 L-0.807129,-1.0083 L-0.807129,1.02539 L-0.345703,1.02539 C-0.0722656,1.02539 0.148763,1.00317 0.317383,0.95874 C0.486003,0.914307 0.626139,0.835124 0.737793,0.721191 C0.838053,0.618652 0.91097,0.506999 0.956543,0.38623 C1.00212,0.265462 1.0249,0.124186 1.0249,-0.0375977 "/>
</g>

<g fill="#c98225" fill-opacity="1" stroke="#ffffff" stroke-opacity="1" stroke-width="1.13386" stroke-linecap="square" stroke-linejoin="bevel" transform="matrix(1,0,0,1,0,0)"
font-family="MS Shell Dlg 2" font-size="8.25" font-weight="400" font-style="normal" 
>
</g>
</g>
</svg>
