<?xml version="1.0" encoding="UTF-8" standalone="no"?>
<svg width="11.2889mm" height="11.2889mm"
 viewBox="0 0 32 32"
 xmlns="http://www.w3.org/2000/svg" xmlns:xlink="http://www.w3.org/1999/xlink"  version="1.2" baseProfile="tiny">
<title>Qt SVG Document</title>
<desc>Generated with Qt</desc>
<defs>
</defs>
<g fill="none" stroke="black" stroke-width="1" fill-rule="evenodd" stroke-linecap="square" stroke-linejoin="bevel" >

<g fill="#ffffff" fill-opacity="1" stroke="#000000" stroke-opacity="1" stroke-width="0.566929" stroke-linecap="square" stroke-linejoin="miter" stroke-miterlimit="2" transform="matrix(1,0,0,1,0,0)"
font-family="MS Shell Dlg 2" font-size="8.25" font-weight="400" font-style="normal" 
>
<path vector-effect="none" fill-rule="evenodd" d="M16,23.0866 L13.2416,22.5297 L10.989,21.011 L9.47029,18.7584 L8.91339,16 L9.47029,13.2416 L10.989,10.989 L13.2416,9.47029 L16,8.91339 L18.7584,9.47029 L21.011,10.989 L22.5297,13.2416 L23.0866,16 L22.5297,18.7584 L21.011,21.011 L18.7584,22.5297 L16,23.0866"/>
</g>

<g stroke="none" transform="matrix(1,0,0,1,0,0)"
font-family="MS Shell Dlg 2" font-size="8.25" font-weight="400" font-style="normal" 
>
<path vector-effect="none" fill-rule="evenodd" d="M16,23.0866 L13.2416,22.5297 L10.989,21.011 L9.47029,18.7584 L8.91339,16 L9.47029,13.2416 L10.989,10.989 L13.2416,9.47029 L16,8.91339 L18.7584,9.47029 L21.011,10.989 L22.5297,13.2416 L23.0866,16 L22.5297,18.7584 L21.011,21.011 L18.7584,22.5297 L16,23.0866"/>
</g>
</g>
</svg>
