<?xml version="1.0" encoding="UTF-8" standalone="no"?>
<svg width="11.2889mm" height="11.2889mm"
 viewBox="0 0 32 32"
 xmlns="http://www.w3.org/2000/svg" xmlns:xlink="http://www.w3.org/1999/xlink"  version="1.2" baseProfile="tiny">
<title>Qt SVG Document</title>
<desc>Generated with Qt</desc>
<defs>
</defs>
<g fill="none" stroke="black" stroke-width="1" fill-rule="evenodd" stroke-linecap="square" stroke-linejoin="bevel" >

<g fill="#ffffff" fill-opacity="1" stroke="#232323" stroke-opacity="1" stroke-width="1.13386" stroke-linecap="square" stroke-linejoin="bevel" transform="matrix(1,0,0,1,0,0)"
font-family="MS Shell Dlg 2" font-size="8.25" font-weight="400" font-style="normal" 
>
<path vector-effect="none" fill-rule="evenodd" d="M23.0322,16 C23.0322,19.8838 19.8838,23.0322 16,23.0322 C12.1162,23.0322 8.96783,19.8838 8.96783,16 C8.96783,12.1162 12.1162,8.96783 16,8.96783 C19.8838,8.96783 23.0322,12.1162 23.0322,16 "/>
</g>

<g fill="#ffb500" fill-opacity="0" stroke="#000000" stroke-opacity="1" stroke-width="1.13386" stroke-linecap="square" stroke-linejoin="bevel" transform="matrix(1,0,0,1,0,0)"
font-family="MS Shell Dlg 2" font-size="8.25" font-weight="400" font-style="normal" 
>
<path vector-effect="none" fill-rule="evenodd" d="M16,16 L11.1757,11.0043 C8.41661,13.6687 8.33987,18.0653 11.0043,20.8243 L16,16"/>
</g>

<g fill="#ffb500" fill-opacity="0" stroke="#000000" stroke-opacity="1" stroke-width="1.13386" stroke-linecap="square" stroke-linejoin="bevel" transform="matrix(1,0,0,1,0,0)"
font-family="MS Shell Dlg 2" font-size="8.25" font-weight="400" font-style="normal" 
>
<path vector-effect="none" fill-rule="evenodd" d="M16,16 L20.8446,21.0167 C23.6153,18.3411 23.6924,13.9261 21.0167,11.1554 L16,16"/>
</g>

<g fill="#ffffff" fill-opacity="1" stroke="#000000" stroke-opacity="1" stroke-width="0.850394" stroke-linecap="square" stroke-linejoin="bevel" transform="matrix(1,0,0,1,0,0)"
font-family="MS Shell Dlg 2" font-size="8.25" font-weight="400" font-style="normal" 
>
<path vector-effect="none" fill-rule="evenodd" d="M18.4953,16 C18.4953,17.3781 17.3781,18.4953 16,18.4953 C14.6219,18.4953 13.5047,17.3781 13.5047,16 C13.5047,14.6219 14.6219,13.5047 16,13.5047 C17.3781,13.5047 18.4953,14.6219 18.4953,16 "/>
</g>
</g>
</svg>
