<?xml version="1.0" encoding="UTF-8" standalone="no"?>
<svg width="11.2889mm" height="11.2889mm"
 viewBox="0 0 32 32"
 xmlns="http://www.w3.org/2000/svg" xmlns:xlink="http://www.w3.org/1999/xlink"  version="1.2" baseProfile="tiny">
<title>Qt SVG Document</title>
<desc>Generated with Qt</desc>
<defs>
</defs>
<g fill="none" stroke="black" stroke-width="1" fill-rule="evenodd" stroke-linecap="square" stroke-linejoin="bevel" >

<g fill="#ffffff" fill-opacity="1" stroke="#232323" stroke-opacity="1" stroke-width="1.13386" stroke-linecap="square" stroke-linejoin="bevel" transform="matrix(1,0,0,1,0,0)"
font-family="MS Shell Dlg 2" font-size="8.25" font-weight="400" font-style="normal" 
>
<path vector-effect="none" fill-rule="evenodd" d="M21.649,16 C21.649,19.1199 19.1199,21.649 16,21.649 C12.8801,21.649 10.351,19.1199 10.351,16 C10.351,12.8801 12.8801,10.351 16,10.351 C19.1199,10.351 21.649,12.8801 21.649,16 "/>
</g>

<g fill="#ffb500" fill-opacity="0" stroke="#000000" stroke-opacity="1" stroke-width="0.566929" stroke-linecap="square" stroke-linejoin="bevel" transform="matrix(1,0,0,1,0,0)"
font-family="MS Shell Dlg 2" font-size="8.25" font-weight="400" font-style="normal" 
>
<path vector-effect="none" fill-rule="evenodd" d="M16,16 L12.0843,11.9452 C9.84486,14.1077 9.78257,17.6763 11.9452,19.9157 L16,16"/>
</g>

<g fill="#ffb500" fill-opacity="0" stroke="#000000" stroke-opacity="1" stroke-width="0.566929" stroke-linecap="square" stroke-linejoin="bevel" transform="matrix(1,0,0,1,0,0)"
font-family="MS Shell Dlg 2" font-size="8.25" font-weight="400" font-style="normal" 
>
<path vector-effect="none" fill-rule="evenodd" d="M16,16 L19.9945,20.1364 C22.279,17.9303 22.3425,14.29 20.1364,12.0055 L16,16"/>
</g>

<g fill="none" stroke="#000000" stroke-opacity="1" stroke-width="1.13386" stroke-linecap="square" stroke-linejoin="bevel" transform="matrix(1,0,0,1,0,0)"
font-family="MS Shell Dlg 2" font-size="8.25" font-weight="400" font-style="normal" 
>
<path vector-effect="none" fill-rule="evenodd" d="M8.91339,8.91339 L23.0866,23.0866 M23.0866,8.91339 L8.91339,23.0866"/>
</g>
</g>
</svg>
