<?xml version="1.0" encoding="UTF-8" standalone="no"?>
<svg width="11.2889mm" height="11.2889mm"
 viewBox="0 0 32 32"
 xmlns="http://www.w3.org/2000/svg" xmlns:xlink="http://www.w3.org/1999/xlink"  version="1.2" baseProfile="tiny">
<title>Qt SVG Document</title>
<desc>Generated with Qt</desc>
<defs>
</defs>
<g fill="none" stroke="black" stroke-width="1" fill-rule="evenodd" stroke-linecap="square" stroke-linejoin="bevel" >

<g fill="#ffffff" fill-opacity="1" stroke="#000000" stroke-opacity="1" stroke-width="0.566929" stroke-linecap="square" stroke-linejoin="bevel" transform="matrix(1,0,0,1,0,0)"
font-family="MS Shell Dlg 2" font-size="8.25" font-weight="400" font-style="normal" 
>
<path vector-effect="none" fill-rule="evenodd" d="M23.0866,17.7008 C23.0866,21.6146 19.9138,24.7874 16,24.7874 C12.0862,24.7874 8.91339,21.6146 8.91339,17.7008 C8.91339,13.787 12.0862,10.6142 16,10.6142 C19.9138,10.6142 23.0866,13.787 23.0866,17.7008 "/>
</g>

<g fill="#000000" fill-opacity="1" stroke="none" transform="matrix(1,0,0,1,16,15.4331)"
font-family="MS Shell Dlg 2" font-size="8.25" font-weight="400" font-style="normal" 
>
<path vector-effect="none" fill-rule="evenodd" d="M2.40088,0.547363 L1.70654,-0.191948 L1.02539,-0.423828 L0.0498047,-0.423828 L-0.635742,-0.191742 L-1.01367,0.206787 L-1.01587,0.530815 L-0.796692,0.981873 L-0.622284,1.15573 L-0.13916,1.41309 L1.49561,1.98438 L2.12402,2.30518 L2.47998,2.68311 L2.81836,3.38623 L2.81836,4.48926 L2.09766,5.23633 L1.13965,5.57031 L-0.0688477,5.57031 L-1.02686,5.23633 L-1.84863,4.38818 L-1.33447,3.83008 L-0.631348,4.57378 L0.0498047,4.80566 L1.02539,4.80566 L1.70654,4.57214 L2.08447,4.17127 L2.08447,3.55885 L1.87381,3.1227 L1.6948,2.93964 L1.21463,2.67761 L-0.419655,2.11017 L-1.05096,1.78882 L-1.40918,1.41309 L-1.74316,0.710098 L-1.74316,-0.107353 L-1.02686,-0.854492 L-0.0688477,-1.18848 L1.13965,-1.18848 L2.09766,-0.854492 L2.92822,-0.00195313 L2.40088,0.547363"/>
</g>

<g fill="#ffffff" fill-opacity="1" stroke="#000000" stroke-opacity="1" stroke-width="0.566929" stroke-linecap="square" stroke-linejoin="bevel" transform="matrix(1,0,0,1,0,0)"
font-family="MS Shell Dlg 2" font-size="8.25" font-weight="400" font-style="normal" 
>
</g>
</g>
</svg>
