<?xml version="1.0" encoding="UTF-8" standalone="no"?>
<svg width="11.2889mm" height="11.2889mm"
 viewBox="0 0 32 32"
 xmlns="http://www.w3.org/2000/svg" xmlns:xlink="http://www.w3.org/1999/xlink"  version="1.2" baseProfile="tiny">
<title>Qt SVG Document</title>
<desc>Generated with Qt</desc>
<defs>
</defs>
<g fill="none" stroke="black" stroke-width="1" fill-rule="evenodd" stroke-linecap="square" stroke-linejoin="bevel" >

<g fill="none" stroke="#000000" stroke-opacity="1" stroke-width="0.566929" stroke-linecap="square" stroke-linejoin="bevel" transform="matrix(1,0,0,1,0,0)"
font-family="MS Shell Dlg 2" font-size="8.25" font-weight="400" font-style="normal" 
>
<path vector-effect="none" fill-rule="evenodd" d="M10.6937,20.9949 L9.33146,19.0494"/>
<path vector-effect="none" fill-rule="evenodd" d="M12.9238,21.3924 L9.71602,16.8112"/>
<path vector-effect="none" fill-rule="evenodd" d="M15.3033,21.6785 L10.4257,14.7125"/>
<path vector-effect="none" fill-rule="evenodd" d="M10.6001,13.0986 L17.3013,7.86307"/>
<path vector-effect="none" fill-rule="evenodd" d="M10.948,10.8704 L15.0552,7.66154"/>
<path vector-effect="none" fill-rule="evenodd" d="M11.2249,8.99702 L13.1704,7.47702"/>
<path vector-effect="none" fill-rule="evenodd" d="M19.0387,8.53654 L24.0372,15.4164"/>
<path vector-effect="none" fill-rule="evenodd" d="M21.0252,8.70388 L24.4919,13.4754"/>
<path vector-effect="none" fill-rule="evenodd" d="M23.0797,8.73705 L25.0952,11.5112"/>
<path vector-effect="none" fill-rule="evenodd" d="M17.1543,15.1302 L13.0794,18.2009"/>
<path vector-effect="none" fill-rule="evenodd" d="M13.9458,10.6924 L17.1706,15.131"/>
<path vector-effect="none" fill-rule="evenodd" d="M21.4901,11.9496 L17.2813,15.0075"/>
</g>

<g fill="none" stroke="#232323" stroke-opacity="1" stroke-width="1.13386" stroke-linecap="square" stroke-linejoin="bevel" transform="matrix(1,0,0,1,0,0)"
font-family="MS Shell Dlg 2" font-size="8.25" font-weight="400" font-style="normal" 
>
<path vector-effect="none" fill-rule="evenodd" d="M8.91339,8.91339 L23.0866,23.0866 M23.0866,8.91339 L8.91339,23.0866"/>
</g>
</g>
</svg>
