<?xml version="1.0" encoding="UTF-8" standalone="no"?>
<svg width="11.2889mm" height="11.2889mm" viewBox="0 0 32 32" xmlns="http://www.w3.org/2000/svg" xmlns:xlink="http://www.w3.org/1999/xlink"  version="1.2" baseProfile="tiny">
<title>Qt SVG Document</title>
<desc>Generated with Qt</desc>
<defs>
</defs>
<g fill="none" stroke="black" stroke-width="1" fill-rule="evenodd" stroke-linecap="square" stroke-linejoin="bevel" >

<g fill="#ff0000" fill-opacity="0" stroke="#000000" stroke-opacity="1" stroke-width="0.566929" stroke-linecap="square" stroke-linejoin="bevel" transform="matrix(1,0,0,1,0,0)"
font-family="MS Shell Dlg 2" font-size="8.25" font-weight="400" font-style="normal" 
>
<path vector-effect="none" fill-rule="evenodd" d="M1.98425,16 C1.98425,17.0959 1.09587,17.9843 0,17.9843 C-1.09587,17.9843 -1.98425,17.0959 -1.98425,16 C-1.98425,14.9041 -1.09587,14.0157 0,14.0157 C1.09587,14.0157 1.98425,14.9041 1.98425,16 "/>
</g>

<g fill="#ff0000" fill-opacity="0" stroke="#000000" stroke-opacity="1" stroke-width="0.566929" stroke-linecap="square" stroke-linejoin="bevel" transform="matrix(1,0,0,1,0,0)"
font-family="MS Shell Dlg 2" font-size="8.25" font-weight="400" font-style="normal" 
>
<path vector-effect="none" fill-rule="evenodd" d="M6.37795,16 C6.37795,19.5224 3.52245,22.378 0,22.378 C-3.52245,22.378 -6.37795,19.5224 -6.37795,16 C-6.37795,12.4776 -3.52245,9.62205 0,9.62205 C3.52245,9.62205 6.37795,12.4776 6.37795,16 "/>
</g>

<g fill="#ff0000" fill-opacity="0" stroke="#000000" stroke-opacity="1" stroke-width="0.566929" stroke-linecap="square" stroke-linejoin="bevel" transform="matrix(1,0,0,1,0,0)"
font-family="MS Shell Dlg 2" font-size="8.25" font-weight="400" font-style="normal" 
>
<path vector-effect="none" fill-rule="evenodd" d="M16.1575,16 C16.1575,17.0959 15.2691,17.9843 14.1732,17.9843 C13.0774,17.9843 12.189,17.0959 12.189,16 C12.189,14.9041 13.0774,14.0157 14.1732,14.0157 C15.2691,14.0157 16.1575,14.9041 16.1575,16 "/>
</g>

<g fill="#ff0000" fill-opacity="0" stroke="#000000" stroke-opacity="1" stroke-width="0.566929" stroke-linecap="square" stroke-linejoin="bevel" transform="matrix(1,0,0,1,0,0)"
font-family="MS Shell Dlg 2" font-size="8.25" font-weight="400" font-style="normal" 
>
<path vector-effect="none" fill-rule="evenodd" d="M20.5512,16 C20.5512,19.5224 17.6957,22.378 14.1732,22.378 C10.6508,22.378 7.79528,19.5224 7.79528,16 C7.79528,12.4776 10.6508,9.62205 14.1732,9.62205 C17.6957,9.62205 20.5512,12.4776 20.5512,16 "/>
</g>

<g fill="#ff0000" fill-opacity="0" stroke="#000000" stroke-opacity="1" stroke-width="0.566929" stroke-linecap="square" stroke-linejoin="bevel" transform="matrix(1,0,0,1,0,0)"
font-family="MS Shell Dlg 2" font-size="8.25" font-weight="400" font-style="normal" 
>
<path vector-effect="none" fill-rule="evenodd" d="M30.3307,16 C30.3307,17.0959 29.4423,17.9843 28.3465,17.9843 C27.2506,17.9843 26.3622,17.0959 26.3622,16 C26.3622,14.9041 27.2506,14.0157 28.3465,14.0157 C29.4423,14.0157 30.3307,14.9041 30.3307,16 "/>
</g>

<g fill="#ff0000" fill-opacity="0" stroke="#000000" stroke-opacity="1" stroke-width="0.566929" stroke-linecap="square" stroke-linejoin="bevel" transform="matrix(1,0,0,1,0,0)"
font-family="MS Shell Dlg 2" font-size="8.25" font-weight="400" font-style="normal" 
>
<path vector-effect="none" fill-rule="evenodd" d="M34.7244,16 C34.7244,19.5224 31.8689,22.378 28.3465,22.378 C24.824,22.378 21.9685,19.5224 21.9685,16 C21.9685,12.4776 24.824,9.62205 28.3465,9.62205 C31.8689,9.62205 34.7244,12.4776 34.7244,16 "/>
</g>

<g fill="none" stroke="#000000" stroke-opacity="1" stroke-width="1" stroke-linecap="square" stroke-linejoin="bevel" transform="matrix(1,0,0,1,0,0)"
font-family="MS Shell Dlg 2" font-size="8.25" font-weight="400" font-style="normal" 
>
</g>
</g>
</svg>
