<?xml version="1.0" encoding="UTF-8" standalone="no"?>
<svg width="32" height="32" viewBox="0 0 32 32" xmlns="http://www.w3.org/2000/svg" xmlns:xlink="http://www.w3.org/1999/xlink"  version="1.2" baseProfile="tiny">
<title>Qt SVG Document</title>
<desc>Generated with Qt</desc>
<defs>
</defs>
<g fill="none" stroke="black" stroke-width="1" fill-rule="evenodd" stroke-linecap="square" stroke-linejoin="bevel" >

<g fill="none" stroke="#ff2fd2" stroke-opacity="1" stroke-width="0.566929" stroke-linecap="square" stroke-linejoin="bevel" transform="matrix(1,0,0,1,0,0)"
font-family="MS Shell Dlg 2" font-size="8.25" font-weight="400" font-style="normal" 
>
<path vector-effect="none" fill-rule="evenodd" d="M0,16 L32,16"/>
</g>

<g fill="#ffffff" fill-opacity="0" stroke="#ff2fd2" stroke-opacity="1" stroke-width="0.566929" stroke-linecap="square" stroke-linejoin="bevel" transform="matrix(1,0,0,1,0,0)"
font-family="MS Shell Dlg 2" font-size="8.25" font-weight="400" font-style="normal" 
>
<path vector-effect="none" fill-rule="evenodd" d="M2.83465,16 C2.83465,17.5655 1.56553,18.8346 0,18.8346 C-1.56553,18.8346 -2.83465,17.5655 -2.83465,16 C-2.83465,14.4345 -1.56553,13.1654 0,13.1654 C1.56553,13.1654 2.83465,14.4345 2.83465,16 "/>
<path vector-effect="none" fill-rule="evenodd" d="M31.1811,16 C31.1811,17.5655 29.912,18.8346 28.3465,18.8346 C26.7809,18.8346 25.5118,17.5655 25.5118,16 C25.5118,14.4345 26.7809,13.1654 28.3465,13.1654 C29.912,13.1654 31.1811,14.4345 31.1811,16 "/>
</g>

<g fill="none" stroke="#ff2fd2" stroke-opacity="1" stroke-width="0.566929" stroke-linecap="square" stroke-linejoin="bevel" transform="matrix(1,0,0,1,0,0)"
font-family="MS Shell Dlg 2" font-size="8.25" font-weight="400" font-style="normal" 
>
</g>
</g>
</svg>
