<?xml version="1.0" encoding="UTF-8" standalone="no"?>
<svg width="32" height="32" viewBox="-20 0 60 32" xmlns="http://www.w3.org/2000/svg" xmlns:xlink="http://www.w3.org/1999/xlink"  version="1.2" baseProfile="tiny">
<title>Qt SVG Document</title>
<desc>Generated with Qt</desc>
<defs>
</defs>
<g fill="none" stroke="black" stroke-width="1" fill-rule="evenodd" stroke-linecap="square" stroke-linejoin="bevel" >

<g fill="none" stroke="#ff2fd2" stroke-opacity="1" stroke-width="0.566929" stroke-linecap="square" stroke-linejoin="bevel" transform="matrix(1,0,0,1,0,0)"
font-family="MS Shell Dlg 2" font-size="8.25" font-weight="400" font-style="normal" 
>
<path vector-effect="none" fill-rule="evenodd" d="M0,16 L32,16"/>
</g>

<g fill="#ffffff" fill-opacity="0" stroke="#ff2fd2" stroke-opacity="1" stroke-width="0.566929" stroke-linecap="square" stroke-linejoin="bevel" transform="matrix(1,0,0,1,0,0)"
font-family="MS Shell Dlg 2" font-size="8.25" font-weight="400" font-style="normal" 
>
<path vector-effect="none" fill-rule="evenodd" d="M-9.07087,16 C-9.07087,17.5655 -10.34,18.8346 -11.9055,18.8346 C-13.471,18.8346 -14.7402,17.5655 -14.7402,16 C-14.7402,14.4345 -13.471,13.1654 -11.9055,13.1654 C-10.34,13.1654 -9.07087,14.4345 -9.07087,16 "/>
<path vector-effect="none" fill-rule="evenodd" d="M19.2756,16 C19.2756,17.5655 18.0065,18.8346 16.4409,18.8346 C14.8754,18.8346 13.6063,17.5655 13.6063,16 C13.6063,14.4345 14.8754,13.1654 16.4409,13.1654 C18.0065,13.1654 19.2756,14.4345 19.2756,16 "/>
</g>

<g fill="none" stroke="#ff2fd2" stroke-opacity="1" stroke-width="0.566929" stroke-linecap="square" stroke-linejoin="bevel" transform="matrix(1,0,0,1,0,0)"
font-family="MS Shell Dlg 2" font-size="8.25" font-weight="400" font-style="normal" 
>
</g>
</g>
</svg>
