<?xml version="1.0" encoding="UTF-8" standalone="no"?>
<svg width="32" height="32" viewBox="2 11 20 10" xmlns="http://www.w3.org/2000/svg" xmlns:xlink="http://www.w3.org/1999/xlink"  version="1.2" baseProfile="tiny">
<title>Qt SVG Document</title>
<desc>Generated with Qt</desc>
<defs>
</defs>
<g fill="none" stroke="black" stroke-width="1" fill-rule="evenodd" stroke-linecap="square" stroke-linejoin="bevel" >

<g fill="#ffffff" fill-opacity="1" stroke="#000000" stroke-opacity="1" stroke-width="0.850394" stroke-linecap="square" stroke-linejoin="miter" stroke-miterlimit="2" transform="matrix(1,0,0,1,0,0)"
font-family="MS Shell Dlg 2" font-size="8.25" font-weight="400" font-style="normal" 
>
<path vector-effect="none" fill-rule="evenodd" d="M7.2126,7.2126 L16,7.2126 L16,24.7874 L7.2126,24.7874 L7.2126,7.2126"/>
</g>

<g fill="#ffffff" fill-opacity="1" stroke="#000000" stroke-opacity="1" stroke-width="0.850394" stroke-linecap="square" stroke-linejoin="miter" stroke-miterlimit="2" transform="matrix(1,0,0,1,12.0315,16)"
font-family="MS Shell Dlg 2" font-size="8.25" font-weight="400" font-style="normal" 
>
</g>

<g fill="#ffffff" fill-opacity="1" stroke="#000000" stroke-opacity="1" stroke-width="0.850394" stroke-linecap="square" stroke-linejoin="miter" stroke-miterlimit="2" transform="matrix(1.33333,0,0,1.33333,12.0315,16)"
font-family="MS Shell Dlg 2" font-size="8.25" font-weight="400" font-style="normal" 
>
</g>

<g fill="#000000" fill-opacity="1" stroke="none" transform="matrix(0.014662,0,0,0.014662,7.77953,11.748)"
font-family="MS Shell Dlg 2" font-size="8.25" font-weight="400" font-style="normal" 
>
<path vector-effect="none" fill-rule="nonzero" d="M170.847,479.718 C134.265,459.085 111.97,410.842 128.432,338.741 C139.98,288.161 173.633,225.737 147.842,173.759 C179.128,195.384 211.655,246.806 244.46,304.884 C246.722,242.076 214.131,200.925 237.559,115.097 C253.635,221.276 318.118,227.857 350.855,324.436 C364.78,279.028 393.746,264.082 379.611,151.329 C521.954,345.726 440.825,414.783 412.392,484.317 L421.593,387.699 C376.949,516.749 341.181,540.556 308.872,569.433 C326.929,508.855 334.05,448.277 297.37,387.699 C288.464,487.161 263.33,466.463 258.262,546.429 C208.008,508.499 197.686,469.591 188.674,406.102 C181.838,413.533 170.293,444.584 170.847,479.718 "/>
</g>

<g fill="#000000" fill-opacity="1" stroke="none" transform="matrix(0.014662,0,0,0.014662,7.77953,11.748)"
font-family="MS Shell Dlg 2" font-size="8.25" font-weight="400" font-style="normal" 
>
<path vector-effect="none" fill-rule="nonzero" d="M274.941,15.604 C237.715,166.762 305.68,165.434 343.379,254.274 C369.822,117.287 290.717,148.109 274.941,15.604 "/>
</g>

<g fill="#ffffff" fill-opacity="1" stroke="#000000" stroke-opacity="1" stroke-width="0.850394" stroke-linecap="square" stroke-linejoin="miter" stroke-miterlimit="2" transform="matrix(1.33333,0,0,1.33333,12.0315,16)"
font-family="MS Shell Dlg 2" font-size="8.25" font-weight="400" font-style="normal" 
>
</g>

<g fill="#ffffff" fill-opacity="1" stroke="#000000" stroke-opacity="1" stroke-width="0.850394" stroke-linecap="square" stroke-linejoin="miter" stroke-miterlimit="2" transform="matrix(1,0,0,1,12.0315,16)"
font-family="MS Shell Dlg 2" font-size="8.25" font-weight="400" font-style="normal" 
>
</g>

<g fill="#ffffff" fill-opacity="1" stroke="#000000" stroke-opacity="1" stroke-width="0.850394" stroke-linecap="square" stroke-linejoin="miter" stroke-miterlimit="2" transform="matrix(1,0,0,1,0,0)"
font-family="MS Shell Dlg 2" font-size="8.25" font-weight="400" font-style="normal" 
>
</g>
</g>
</svg>
