<?xml version="1.0" encoding="UTF-8" standalone="no"?>
<svg width="32" height="32" viewBox="6 12 20 7" xmlns="http://www.w3.org/2000/svg" xmlns:xlink="http://www.w3.org/1999/xlink"  version="1.2" baseProfile="tiny">
<title>Qt SVG Document</title>
<desc>Generated with Qt</desc>
<defs>
</defs>
<g fill="none" stroke="black" stroke-width="1" fill-rule="evenodd" stroke-linecap="square" stroke-linejoin="bevel" >

<g fill="#ffffff" fill-opacity="1" stroke="#232323" stroke-opacity="1" stroke-width="0.566929" stroke-linecap="square" stroke-linejoin="round" transform="matrix(1,0,0,1,0,0)"
font-family="MS Shell Dlg 2" font-size="8.25" font-weight="400" font-style="normal" 
>
<path vector-effect="none" fill-rule="evenodd" d="M21.6693,16 C21.6693,19.1311 19.1311,21.6693 16,21.6693 C12.8689,21.6693 10.3307,19.1311 10.3307,16 C10.3307,12.8689 12.8689,10.3307 16,10.3307 C19.1311,10.3307 21.6693,12.8689 21.6693,16 "/>
</g>

<g fill="#ffffff" fill-opacity="1" stroke="#232323" stroke-opacity="1" stroke-width="0.566929" stroke-linecap="square" stroke-linejoin="bevel" transform="matrix(1,0,0,1,0,0)"
font-family="MS Shell Dlg 2" font-size="8.25" font-weight="400" font-style="normal" 
>
<path vector-effect="none" fill-rule="evenodd" d="M19.4016,16 C19.4016,17.8786 17.8786,19.4016 16,19.4016 C14.1214,19.4016 12.5984,17.8786 12.5984,16 C12.5984,14.1214 14.1214,12.5984 16,12.5984 C17.8786,12.5984 19.4016,14.1214 19.4016,16 "/>
</g>
</g>
</svg>
