<?xml version="1.0" encoding="UTF-8" standalone="no"?>
<svg width="11.2889mm" height="11.2889mm"
 viewBox="0 0 32 32"
 xmlns="http://www.w3.org/2000/svg" xmlns:xlink="http://www.w3.org/1999/xlink"  version="1.2" baseProfile="tiny">
<title>Qt SVG Document</title>
<desc>Generated with Qt</desc>
<defs>
</defs>
<g fill="none" stroke="black" stroke-width="1" fill-rule="evenodd" stroke-linecap="square" stroke-linejoin="bevel" >

<g fill="#ffffff" fill-opacity="1" stroke="#000000" stroke-opacity="1" stroke-width="1.13386" stroke-linecap="square" stroke-linejoin="miter" stroke-miterlimit="2" transform="matrix(1,0,0,1,0,0)"
font-family="MS Shell Dlg 2" font-size="8.25" font-weight="400" font-style="normal" 
>
<path vector-effect="none" fill-rule="evenodd" d="M23.0866,8.91339 L23.0866,16 L8.91339,16 L8.91339,8.91339 L23.0866,8.91339"/>
</g>

<g fill="#000000" fill-opacity="1" stroke="#000000" stroke-opacity="1" stroke-width="0.283465" stroke-linecap="square" stroke-linejoin="bevel" transform="matrix(1,0,0,1,16,11.4646)"
font-family="MS Shell Dlg 2" font-size="8.25" font-weight="400" font-style="normal" 
>
<path vector-effect="none" fill-rule="evenodd" d="M-3.17101,1.2835 L-2.20658,2.8682 L-2.55868,3.08335 L-3.64365,1.2959 L-4.39648,1.2959 L-4.39648,3.00244 L-4.79932,3.00244 L-4.79932,-0.71582 L-3.2002,-0.71582 L-2.66805,-0.53035 L-2.45557,-0.315468 L-2.26758,0.0800781 L-2.26758,0.497559 L-2.45557,0.890625 L-2.66846,1.10841 L-3.17101,1.2835 M-2.67655,0.180748 L-2.79279,-0.0638123 L-2.88529,-0.163948 L-3.2573,-0.291016 L-4.39648,-0.291016 L-4.39648,0.871094 L-3.26367,0.871094 L-2.88419,0.738876 L-2.78977,0.638817 L-2.67453,0.397804 L-2.67655,0.180748 M-0.799316,3.03906 L-0.799316,-0.71582 L1.51514,-0.71582 L1.51514,-0.291016 L-0.398926,-0.291016 L-0.398926,0.871094 L0.765625,0.871094 L0.765625,1.2959 L-0.398926,1.2959 L-0.398926,2.61426 L1.51514,2.61426 L1.51514,3.03906 L-0.799316,3.03906 M4.66895,3.14404 L4.66895,0.641602 L3.79496,3.00244 L3.4873,3.00244 L2.61084,0.641373 L2.61084,3.00244 L2.20068,3.00244 L2.20068,-0.676758 L2.56159,-0.676758 L3.64085,2.23752 L4.71964,-0.676758 L5.0791,-0.676758 L5.0791,2.88037 L4.66895,3.14404"/>
</g>

<g fill="#ffffff" fill-opacity="1" stroke="#000000" stroke-opacity="1" stroke-width="1.13386" stroke-linecap="square" stroke-linejoin="miter" stroke-miterlimit="2" transform="matrix(1,0,0,1,0,0)"
font-family="MS Shell Dlg 2" font-size="8.25" font-weight="400" font-style="normal" 
>
</g>

<g fill="none" stroke="#000000" stroke-opacity="1" stroke-width="1.13386" stroke-linecap="square" stroke-linejoin="bevel" transform="matrix(1,0,0,1,0,0)"
font-family="MS Shell Dlg 2" font-size="8.25" font-weight="400" font-style="normal" 
>
<path vector-effect="none" fill-rule="evenodd" d="M8.91339,5.51181 L23.0866,19.685 M23.0866,5.51181 L8.91339,19.685"/>
</g>
</g>
</svg>
