<?xml version="1.0" encoding="UTF-8" standalone="no"?>
<svg width="32" height="32" viewBox="6 7 22 11" xmlns="http://www.w3.org/2000/svg" xmlns:xlink="http://www.w3.org/1999/xlink" version="1.2" baseProfile="tiny">
  <title>Qt SVG Document</title>
  <desc>Generated with Qt</desc>
  <defs></defs>

  <g fill="none" stroke="black" stroke-width="1" fill-rule="evenodd" stroke-linecap="square" stroke-linejoin="bevel">

    <!-- Rectangle inférieur (avec bordures grises) -->
    <g fill="#ffffff" fill-opacity="1" stroke="#232323" stroke-opacity="1" stroke-width="0.566929" 
       stroke-linecap="square" stroke-linejoin="miter" stroke-miterlimit="2"
       transform="matrix(1,0,0,1,0,0)" font-family="MS Shell Dlg 2" font-size="8.25" font-weight="400" font-style="normal">
      <path vector-effect="none" fill-rule="evenodd" d="M21.6693,15.3197 L21.6693,20.989 L10.3307,20.989 L10.3307,15.3197 L21.6693,15.3197"/>
    </g>

    <!-- Contour rectangle inférieur (sans remplissage) -->
    <g stroke="none" transform="matrix(1,0,0,1,0,0)" font-family="MS Shell Dlg 2" font-size="8.25" font-weight="400" font-style="normal">
      <path vector-effect="none" fill-rule="evenodd" d="M21.6693,15.3197 L21.6693,20.989 L10.3307,20.989 L10.3307,15.3197 L21.6693,15.3197"/>
    </g>

    <!-- Rectangle supérieur -->
    <g fill="#ffffff" fill-opacity="1" stroke="#000000" stroke-opacity="1" stroke-width="0.566929" 
       stroke-linecap="square" stroke-linejoin="bevel" transform="matrix(1,0,0,1,0,0)" 
       font-family="MS Shell Dlg 2" font-size="8.25" font-weight="400" font-style="normal">
      <path vector-effect="none" fill-rule="evenodd" d="M10.3307,4.43465 L21.6693,4.43465 L21.6693,15.7732 L10.3307,15.7732 L10.3307,4.43465"/>
    </g>

    <!-- Cercle dans le rectangle supérieur -->
    <g fill="#ffffff" fill-opacity="1" stroke="#000000" stroke-opacity="1" stroke-width="0.566929"
       stroke-linecap="square" stroke-linejoin="bevel" transform="matrix(1,0,0,1,0,0)" 
       font-family="MS Shell Dlg 2" font-size="8.25" font-weight="400" font-style="normal">
      <path vector-effect="none" fill-rule="evenodd"
            d="M20.3087,10.1039 C20.3087,12.4835 18.3796,14.4126 16,14.4126 C13.6204,14.4126 11.6913,12.4835 11.6913,10.1039 C11.6913,7.72433 13.6204,5.79528 16,5.79528 C18.3796,5.79528 20.3087,7.72433 20.3087,10.1039"/>
    </g>

    <!-- Hachures verticales dans le rectangle inférieur -->
    <path d="M12.5,15.32 L12.5,20.99" stroke="#000000" stroke-width="0.4"/>
    <path d="M16,15.32 L16,20.99" stroke="#000000" stroke-width="0.4"/>
    <path d="M19.5,15.32 L19.5,20.99" stroke="#000000" stroke-width="0.4"/>

  </g>
</svg>
