<?xml version="1.0" encoding="UTF-8" standalone="no"?>
<svg width="32" height="32" viewBox="6 11 20 11" xmlns="http://www.w3.org/2000/svg" xmlns:xlink="http://www.w3.org/1999/xlink"  version="1.2" baseProfile="tiny">
<title>Qt SVG Document</title>
<desc>Generated with Qt</desc>
<defs>
</defs>
<g fill="none" stroke="black" stroke-width="1" fill-rule="evenodd" stroke-linecap="square" stroke-linejoin="bevel" >

<g fill="#ffffff" fill-opacity="1" stroke="#000000" stroke-opacity="1" stroke-width="0.566929" stroke-linecap="square" stroke-linejoin="bevel" transform="matrix(1,0,0,1,0,0)"
font-family="MS Shell Dlg 2" font-size="8.25" font-weight="400" font-style="normal" 
>
<path vector-effect="none" fill-rule="evenodd" d="M23.0866,17.7008 C23.0866,21.6146 19.9138,24.7874 16,24.7874 C12.0862,24.7874 8.91339,21.6146 8.91339,17.7008 C8.91339,13.787 12.0862,10.6142 16,10.6142 C19.9138,10.6142 23.0866,13.787 23.0866,17.7008 "/>
</g>

<g fill="#ffffff" fill-opacity="1" stroke="#000000" stroke-opacity="1" stroke-width="0.566929" stroke-linecap="square" stroke-linejoin="bevel" transform="matrix(1,0,0,1,15.4331,17.1339)"
font-family="MS Shell Dlg 2" font-size="8.25" font-weight="400" font-style="normal" 
>
</g>

<g fill="#ffffff" fill-opacity="1" stroke="#000000" stroke-opacity="1" stroke-width="0.566929" stroke-linecap="square" stroke-linejoin="bevel" transform="matrix(1.33333,0,0,1.33333,15.4331,17.1339)"
font-family="MS Shell Dlg 2" font-size="8.25" font-weight="400" font-style="normal" 
>
</g>

<g fill="#000000" fill-opacity="1" stroke="none" transform="matrix(0.0205267,0,0,0.0205267,9.48031,11.1811)"
font-family="MS Shell Dlg 2" font-size="8.25" font-weight="400" font-style="normal" 
>
<path vector-effect="none" fill-rule="nonzero" d="M456.567,260.844 C444.392,260.844 432.776,263.277 422.172,267.674 C421.191,264.282 420.195,260.839 419.195,257.382 C415.029,242.981 410.784,228.361 407.21,216.415 C403.689,204.646 400.43,197.399 399.361,192.183 C398.529,188.119 403.678,188.467 409.104,183.946 C413.202,180.531 416.678,174.763 417.742,168.892 C418.629,163.729 417.53,158.542 415.13,154.294 C406.788,141.55 398.65,141.791 387.883,141.791 C373.726,141.791 350.358,141.791 350.358,141.791 L350.447,164.784 L386.448,164.857 C390.744,164.866 392.971,170.906 384.575,173.255 C380.896,174.274 376.798,178.655 375.427,184.083 C374.055,189.512 375.08,194.926 377.086,199.941 C377.547,201.094 378.449,204.637 379.772,209.598 L216.333,210.423 L206.682,186.798 C217.58,184.305 242.582,178.309 246.044,175.013 C250.156,171.268 246.044,165.634 242.858,165.634 L157.559,165.634 C158.613,184.449 173.361,188.54 181.34,189.778 L190.77,212.862 C189.756,213.696 188.89,214.722 188.246,215.917 L159.756,268.827 C149.381,264.649 138.059,262.343 126.207,262.343 C76.534,262.343 36.123,302.754 36.123,352.427 C36.123,402.1 76.535,442.511 126.207,442.511 C172.923,442.511 211.443,406.766 215.864,361.19 L224.798,361.19 C227.769,370.4 234.724,378.012 243.791,382.287 L239.409,392.486 L223.251,392.634 C219.789,392.666 217.008,395.498 217.039,398.961 C217.071,402.403 219.872,405.173 223.308,405.173 C223.327,405.173 223.347,405.173 223.367,405.173 L259.637,404.841 C263.099,404.809 265.88,401.977 265.849,398.514 C265.817,395.053 263.029,392.28 259.522,392.302 L249.216,392.397 L252.328,385.154 C254.993,385.717 257.761,386.025 260.606,386.025 C281.221,386.025 297.993,370.391 297.993,351.175 C297.993,347.212 297.269,343.404 295.956,339.852 L397.538,270.922 C398.483,274.195 399.417,277.436 400.332,280.608 C379.715,297.13 366.486,322.51 366.486,350.925 C366.486,400.598 406.897,441.01 456.57,441.01 C506.243,441.01 546.654,400.598 546.654,350.925 C546.651,301.256 506.24,260.844 456.567,260.844 M385.638,230.1 C387.494,236.371 389.49,243.184 391.529,250.191 L283.385,323.574 C282.231,322.745 281.027,321.974 279.773,321.273 L284.255,310.841 L300.484,310.692 C303.947,310.66 306.728,307.828 306.696,304.365 C306.665,300.922 303.864,298.153 300.427,298.153 C300.407,298.153 300.388,298.153 300.368,298.153 L264.098,298.486 C260.636,298.518 257.854,301.35 257.886,304.813 C257.918,308.256 260.719,311.025 264.155,311.025 C264.174,311.025 264.194,311.025 264.214,311.025 L274.448,310.931 L271.481,317.838 C268.037,316.859 264.386,316.329 260.604,316.329 C260.269,316.329 259.938,316.345 259.606,316.352 L224.703,230.912 L385.638,230.1 M200.45,236.559 L236.427,324.627 C231.136,328.819 227.108,334.353 224.961,340.663 L215.523,340.663 C212.168,315.055 198.015,292.8 177.799,278.625 L200.45,236.559 M189.189,340.663 L144.393,340.663 L165.351,301.743 C177.548,311.185 186.253,324.917 189.189,340.663 M126.207,416.514 C90.871,416.514 62.123,387.766 62.123,352.43 C62.123,317.094 90.871,288.346 126.207,288.346 C133.602,288.346 140.701,289.62 147.315,291.935 L118.169,346.062 C116.456,349.243 116.542,353.09 118.395,356.192 C120.248,359.294 123.595,361.193 127.208,361.193 L189.677,361.193 C185.389,392.396 158.569,416.514 126.207,416.514 M456.567,415.013 C421.231,415.013 392.483,386.265 392.483,350.928 C392.483,334.736 398.532,319.938 408.472,308.645 C409.538,312.243 410.495,315.421 411.298,318.05 C412.435,321.774 413.01,323.86 413.971,326.225 L414.371,327.208 L414.955,328.1 C415.372,328.768 419.476,340.315 430.567,349.829 L430.659,349.89 L430.721,349.983 C438.692,356.586 445.567,358.953 449.909,360.332 C454.482,361.738 460.74,361.018 463.769,356.316 C466.173,352.868 464.057,345.888 459.503,342.581 C457.711,341.328 452.546,337.227 446.202,331.676 C440.545,326.624 440.086,322.757 436.713,316.822 C436.799,317.013 435.865,314.324 434.808,310.86 C433.722,307.304 432.308,302.558 430.689,297.03 C430.296,295.689 429.891,294.301 429.474,292.873 C437.709,289.015 446.887,286.846 456.566,286.846 C491.902,286.846 520.65,315.594 520.65,350.929 C520.651,386.265 491.903,415.013 456.567,415.013 "/>
</g>

<g fill="#ffffff" fill-opacity="1" stroke="#000000" stroke-opacity="1" stroke-width="0.566929" stroke-linecap="square" stroke-linejoin="bevel" transform="matrix(1.33333,0,0,1.33333,15.4331,17.1339)"
font-family="MS Shell Dlg 2" font-size="8.25" font-weight="400" font-style="normal" 
>
</g>

<g fill="#ffffff" fill-opacity="1" stroke="#000000" stroke-opacity="1" stroke-width="0.566929" stroke-linecap="square" stroke-linejoin="bevel" transform="matrix(1,0,0,1,15.4331,17.1339)"
font-family="MS Shell Dlg 2" font-size="8.25" font-weight="400" font-style="normal" 
>
</g>

<g fill="#ffffff" fill-opacity="1" stroke="#000000" stroke-opacity="1" stroke-width="0.566929" stroke-linecap="square" stroke-linejoin="bevel" transform="matrix(1,0,0,1,0,0)"
font-family="MS Shell Dlg 2" font-size="8.25" font-weight="400" font-style="normal" 
>
</g>
</g>
</svg>
